    <svg width="45px" height="45px" viewBox="0 0 22 22" xmlns="http://www.w3.org/2000/svg">
      <path
        d="M17.014 1.375a3.62 3.62 0 0 1 3.611 3.611v12.028a3.62 3.62 0 0 1-3.611 3.611H4.986a3.62 3.62 0 0 1-3.611-3.611V4.986a3.62 3.62 0 0 1 3.611-3.611h12.028zm-6.138 5.55a4.583 4.583 0 1 0 0 9.166 4.583 4.583 0 0 0 0-9.166zm0 1.022a3.56 3.56 0 1 1 0 7.122 3.56 3.56 0 0 1 0-7.122zm5.831-4.233a1.3 1.3 0 1 0 0 2.599 1.3 1.3 0 0 0 0-2.6z"
        fill="#2B2825"
        fillRule="nonzero"
      />
    </svg>